<mxfile host="app.diagrams.net" modified="2023-03-27T17:43:18.834Z" agent="Mozilla/5.0 (Windows NT 10.0; Win64; x64) AppleWebKit/537.36 (KHTML, like Gecko) Chrome/111.0.0.0 Safari/537.36" version="21.1.1" etag="o7Gd9wSR5WTO4lWyoh8N" type="device">
  <diagram id="GdvWTqYvixo1m-6YqlMA" name="P치gina-1">
    <mxGraphModel dx="1120" dy="452" grid="1" gridSize="10" guides="1" tooltips="1" connect="1" arrows="1" fold="1" page="1" pageScale="1" pageWidth="827" pageHeight="1169" math="0" shadow="0">
      <root>
        <mxCell id="0" />
        <mxCell id="1" parent="0" />
        <mxCell id="rKxWLHLORs9Mlps9D5rW-1" value="Obra social" style="rounded=0;whiteSpace=wrap;html=1;" vertex="1" parent="1">
          <mxGeometry x="195" y="320" width="100" height="40" as="geometry" />
        </mxCell>
        <mxCell id="rKxWLHLORs9Mlps9D5rW-2" value="Servicios" style="rounded=0;whiteSpace=wrap;html=1;" vertex="1" parent="1">
          <mxGeometry x="330" y="210" width="100" height="40" as="geometry" />
        </mxCell>
        <mxCell id="rKxWLHLORs9Mlps9D5rW-3" value="Clinicas" style="rounded=0;whiteSpace=wrap;html=1;" vertex="1" parent="1">
          <mxGeometry x="485" y="320" width="100" height="40" as="geometry" />
        </mxCell>
        <mxCell id="rKxWLHLORs9Mlps9D5rW-4" value="" style="endArrow=none;html=1;rounded=0;fontFamily=Helvetica;fontSize=12;fontColor=default;exitX=0.5;exitY=0;exitDx=0;exitDy=0;entryX=0.5;entryY=1;entryDx=0;entryDy=0;" edge="1" parent="1" source="rKxWLHLORs9Mlps9D5rW-1" target="rKxWLHLORs9Mlps9D5rW-5">
          <mxGeometry width="50" height="50" relative="1" as="geometry">
            <mxPoint x="390" y="340" as="sourcePoint" />
            <mxPoint x="210" y="230" as="targetPoint" />
          </mxGeometry>
        </mxCell>
        <mxCell id="rKxWLHLORs9Mlps9D5rW-5" value="presta" style="rhombus;whiteSpace=wrap;html=1;" vertex="1" parent="1">
          <mxGeometry x="210" y="195" width="70" height="70" as="geometry" />
        </mxCell>
        <mxCell id="rKxWLHLORs9Mlps9D5rW-6" value="" style="endArrow=none;html=1;rounded=0;fontFamily=Helvetica;fontSize=12;fontColor=default;entryX=1;entryY=0.5;entryDx=0;entryDy=0;exitX=0;exitY=0.5;exitDx=0;exitDy=0;" edge="1" parent="1" source="rKxWLHLORs9Mlps9D5rW-2" target="rKxWLHLORs9Mlps9D5rW-5">
          <mxGeometry width="50" height="50" relative="1" as="geometry">
            <mxPoint x="390" y="340" as="sourcePoint" />
            <mxPoint x="435" y="340" as="targetPoint" />
          </mxGeometry>
        </mxCell>
        <mxCell id="rKxWLHLORs9Mlps9D5rW-9" value="N" style="text;html=1;strokeColor=none;fillColor=none;align=center;verticalAlign=middle;whiteSpace=wrap;rounded=0;" vertex="1" parent="1">
          <mxGeometry x="280" y="200.0000000000001" width="60" height="30" as="geometry" />
        </mxCell>
        <mxCell id="rKxWLHLORs9Mlps9D5rW-10" value="ofrece" style="rhombus;whiteSpace=wrap;html=1;" vertex="1" parent="1">
          <mxGeometry x="500" y="195" width="70" height="70" as="geometry" />
        </mxCell>
        <mxCell id="rKxWLHLORs9Mlps9D5rW-11" value="" style="endArrow=none;html=1;rounded=0;fontFamily=Helvetica;fontSize=12;fontColor=default;entryX=0;entryY=0.5;entryDx=0;entryDy=0;exitX=1;exitY=0.5;exitDx=0;exitDy=0;" edge="1" parent="1" source="rKxWLHLORs9Mlps9D5rW-2" target="rKxWLHLORs9Mlps9D5rW-10">
          <mxGeometry width="50" height="50" relative="1" as="geometry">
            <mxPoint x="390" y="340" as="sourcePoint" />
            <mxPoint x="435" y="340" as="targetPoint" />
          </mxGeometry>
        </mxCell>
        <mxCell id="rKxWLHLORs9Mlps9D5rW-13" value="N" style="text;html=1;strokeColor=none;fillColor=none;align=center;verticalAlign=middle;whiteSpace=wrap;rounded=0;" vertex="1" parent="1">
          <mxGeometry x="420" y="200" width="60" height="30" as="geometry" />
        </mxCell>
        <mxCell id="rKxWLHLORs9Mlps9D5rW-14" value="" style="endArrow=none;html=1;rounded=0;fontFamily=Helvetica;fontSize=12;fontColor=default;entryX=0.5;entryY=1;entryDx=0;entryDy=0;exitX=0.5;exitY=0;exitDx=0;exitDy=0;" edge="1" parent="1" source="rKxWLHLORs9Mlps9D5rW-3" target="rKxWLHLORs9Mlps9D5rW-10">
          <mxGeometry width="50" height="50" relative="1" as="geometry">
            <mxPoint x="390" y="340" as="sourcePoint" />
            <mxPoint x="435" y="340" as="targetPoint" />
          </mxGeometry>
        </mxCell>
        <mxCell id="rKxWLHLORs9Mlps9D5rW-15" value="" style="endArrow=none;html=1;rounded=0;fontFamily=Helvetica;fontSize=12;fontColor=default;entryX=0;entryY=0.5;entryDx=0;entryDy=0;exitX=1;exitY=0.5;exitDx=0;exitDy=0;" edge="1" parent="1" source="rKxWLHLORs9Mlps9D5rW-16" target="rKxWLHLORs9Mlps9D5rW-3">
          <mxGeometry width="50" height="50" relative="1" as="geometry">
            <mxPoint x="390" y="340" as="sourcePoint" />
            <mxPoint x="435" y="340" as="targetPoint" />
          </mxGeometry>
        </mxCell>
        <mxCell id="rKxWLHLORs9Mlps9D5rW-16" value="tiene convenio con" style="rhombus;whiteSpace=wrap;html=1;" vertex="1" parent="1">
          <mxGeometry x="350" y="305" width="70" height="70" as="geometry" />
        </mxCell>
        <mxCell id="rKxWLHLORs9Mlps9D5rW-17" value="" style="endArrow=none;html=1;rounded=0;fontFamily=Helvetica;fontSize=12;fontColor=default;entryX=0;entryY=0.5;entryDx=0;entryDy=0;exitX=1;exitY=0.5;exitDx=0;exitDy=0;" edge="1" parent="1" source="rKxWLHLORs9Mlps9D5rW-1" target="rKxWLHLORs9Mlps9D5rW-16">
          <mxGeometry width="50" height="50" relative="1" as="geometry">
            <mxPoint x="390" y="330" as="sourcePoint" />
            <mxPoint x="435" y="330" as="targetPoint" />
          </mxGeometry>
        </mxCell>
        <mxCell id="rKxWLHLORs9Mlps9D5rW-18" value="N" style="text;html=1;strokeColor=none;fillColor=none;align=center;verticalAlign=middle;whiteSpace=wrap;rounded=0;" vertex="1" parent="1">
          <mxGeometry x="300" y="320.0000000000001" width="60" height="30" as="geometry" />
        </mxCell>
        <mxCell id="rKxWLHLORs9Mlps9D5rW-19" value="N" style="text;html=1;strokeColor=none;fillColor=none;align=center;verticalAlign=middle;whiteSpace=wrap;rounded=0;" vertex="1" parent="1">
          <mxGeometry x="480" y="290" width="60" height="30" as="geometry" />
        </mxCell>
        <mxCell id="rKxWLHLORs9Mlps9D5rW-20" value="N" style="text;html=1;strokeColor=none;fillColor=none;align=center;verticalAlign=middle;whiteSpace=wrap;rounded=0;" vertex="1" parent="1">
          <mxGeometry x="195" y="290.0000000000001" width="60" height="30" as="geometry" />
        </mxCell>
        <mxCell id="rKxWLHLORs9Mlps9D5rW-21" value="&lt;u&gt;c칩digo&lt;/u&gt;" style="ellipse;whiteSpace=wrap;html=1;strokeColor=default;fontFamily=Helvetica;fontSize=12;fontColor=default;fillColor=default;" vertex="1" parent="1">
          <mxGeometry x="290" y="140" width="90" height="40" as="geometry" />
        </mxCell>
        <mxCell id="rKxWLHLORs9Mlps9D5rW-22" value="nombre" style="ellipse;whiteSpace=wrap;html=1;strokeColor=default;fontFamily=Helvetica;fontSize=12;fontColor=default;fillColor=default;" vertex="1" parent="1">
          <mxGeometry x="395" y="140" width="90" height="40" as="geometry" />
        </mxCell>
        <mxCell id="rKxWLHLORs9Mlps9D5rW-25" value="&lt;u&gt;c칩digo&lt;/u&gt;" style="ellipse;whiteSpace=wrap;html=1;strokeColor=default;fontFamily=Helvetica;fontSize=12;fontColor=default;fillColor=default;" vertex="1" parent="1">
          <mxGeometry x="145" y="380" width="90" height="40" as="geometry" />
        </mxCell>
        <mxCell id="rKxWLHLORs9Mlps9D5rW-26" value="nombre" style="ellipse;whiteSpace=wrap;html=1;strokeColor=default;fontFamily=Helvetica;fontSize=12;fontColor=default;fillColor=default;" vertex="1" parent="1">
          <mxGeometry x="250" y="380" width="90" height="40" as="geometry" />
        </mxCell>
        <mxCell id="rKxWLHLORs9Mlps9D5rW-27" value="&lt;u&gt;c칩digo&lt;/u&gt;" style="ellipse;whiteSpace=wrap;html=1;strokeColor=default;fontFamily=Helvetica;fontSize=12;fontColor=default;fillColor=default;" vertex="1" parent="1">
          <mxGeometry x="450" y="380" width="90" height="40" as="geometry" />
        </mxCell>
        <mxCell id="rKxWLHLORs9Mlps9D5rW-28" value="nombre" style="ellipse;whiteSpace=wrap;html=1;strokeColor=default;fontFamily=Helvetica;fontSize=12;fontColor=default;fillColor=default;" vertex="1" parent="1">
          <mxGeometry x="555" y="380" width="90" height="40" as="geometry" />
        </mxCell>
        <mxCell id="rKxWLHLORs9Mlps9D5rW-29" value="" style="endArrow=none;html=1;rounded=0;fontFamily=Helvetica;fontSize=12;fontColor=default;entryX=0.5;entryY=1;entryDx=0;entryDy=0;" edge="1" parent="1" target="rKxWLHLORs9Mlps9D5rW-22">
          <mxGeometry width="50" height="50" relative="1" as="geometry">
            <mxPoint x="380" y="210" as="sourcePoint" />
            <mxPoint x="400" y="470" as="targetPoint" />
          </mxGeometry>
        </mxCell>
        <mxCell id="rKxWLHLORs9Mlps9D5rW-30" value="" style="endArrow=none;html=1;rounded=0;fontFamily=Helvetica;fontSize=12;fontColor=default;exitX=0.5;exitY=0;exitDx=0;exitDy=0;entryX=0.5;entryY=1;entryDx=0;entryDy=0;" edge="1" parent="1" source="rKxWLHLORs9Mlps9D5rW-2" target="rKxWLHLORs9Mlps9D5rW-21">
          <mxGeometry width="50" height="50" relative="1" as="geometry">
            <mxPoint x="370" y="540" as="sourcePoint" />
            <mxPoint x="410" y="480" as="targetPoint" />
          </mxGeometry>
        </mxCell>
        <mxCell id="rKxWLHLORs9Mlps9D5rW-31" value="" style="endArrow=none;html=1;rounded=0;fontFamily=Helvetica;fontSize=12;fontColor=default;exitX=0.5;exitY=0;exitDx=0;exitDy=0;entryX=0.5;entryY=1;entryDx=0;entryDy=0;" edge="1" parent="1" source="rKxWLHLORs9Mlps9D5rW-25" target="rKxWLHLORs9Mlps9D5rW-1">
          <mxGeometry width="50" height="50" relative="1" as="geometry">
            <mxPoint x="370" y="540" as="sourcePoint" />
            <mxPoint x="410" y="480" as="targetPoint" />
          </mxGeometry>
        </mxCell>
        <mxCell id="rKxWLHLORs9Mlps9D5rW-32" value="" style="endArrow=none;html=1;rounded=0;fontFamily=Helvetica;fontSize=12;fontColor=default;exitX=0.5;exitY=0;exitDx=0;exitDy=0;entryX=0.5;entryY=1;entryDx=0;entryDy=0;" edge="1" parent="1" source="rKxWLHLORs9Mlps9D5rW-26" target="rKxWLHLORs9Mlps9D5rW-1">
          <mxGeometry width="50" height="50" relative="1" as="geometry">
            <mxPoint x="380" y="550" as="sourcePoint" />
            <mxPoint x="420" y="490" as="targetPoint" />
          </mxGeometry>
        </mxCell>
        <mxCell id="rKxWLHLORs9Mlps9D5rW-33" value="" style="endArrow=none;html=1;rounded=0;fontFamily=Helvetica;fontSize=12;fontColor=default;exitX=0.5;exitY=0;exitDx=0;exitDy=0;entryX=0.5;entryY=1;entryDx=0;entryDy=0;" edge="1" parent="1" source="rKxWLHLORs9Mlps9D5rW-27" target="rKxWLHLORs9Mlps9D5rW-3">
          <mxGeometry width="50" height="50" relative="1" as="geometry">
            <mxPoint x="380" y="550" as="sourcePoint" />
            <mxPoint x="420" y="490" as="targetPoint" />
          </mxGeometry>
        </mxCell>
        <mxCell id="rKxWLHLORs9Mlps9D5rW-34" value="" style="endArrow=none;html=1;rounded=0;fontFamily=Helvetica;fontSize=12;fontColor=default;exitX=0.5;exitY=0;exitDx=0;exitDy=0;" edge="1" parent="1" source="rKxWLHLORs9Mlps9D5rW-28">
          <mxGeometry width="50" height="50" relative="1" as="geometry">
            <mxPoint x="390" y="560" as="sourcePoint" />
            <mxPoint x="540" y="360" as="targetPoint" />
          </mxGeometry>
        </mxCell>
        <mxCell id="rKxWLHLORs9Mlps9D5rW-35" value="N" style="text;html=1;strokeColor=none;fillColor=none;align=center;verticalAlign=middle;whiteSpace=wrap;rounded=0;" vertex="1" parent="1">
          <mxGeometry x="410" y="310" width="60" height="30" as="geometry" />
        </mxCell>
      </root>
    </mxGraphModel>
  </diagram>
</mxfile>
